<mxfile host="app.diagrams.net" agent="Mozilla/5.0 (Windows NT 10.0; Win64; x64) AppleWebKit/537.36 (KHTML, like Gecko) Chrome/131.0.0.0 Safari/537.36" version="25.0.3">
  <diagram name="Página-1" id="G611YRqt2IxDtgXyGjsI">
    <mxGraphModel dx="1425" dy="642" grid="1" gridSize="10" guides="1" tooltips="1" connect="1" arrows="1" fold="1" page="1" pageScale="1" pageWidth="827" pageHeight="1169" math="0" shadow="0">
      <root>
        <mxCell id="0" />
        <mxCell id="1" parent="0" />
        <mxCell id="c7IyUhSVyjtczBqc86Vg-6" value="" style="rounded=0;whiteSpace=wrap;html=1;" vertex="1" parent="1">
          <mxGeometry x="40" y="40" width="740" height="1100" as="geometry" />
        </mxCell>
        <mxCell id="c7IyUhSVyjtczBqc86Vg-7" value="" style="rounded=0;whiteSpace=wrap;html=1;" vertex="1" parent="1">
          <mxGeometry x="40" y="40" width="740" height="60" as="geometry" />
        </mxCell>
        <mxCell id="c7IyUhSVyjtczBqc86Vg-8" value="&lt;font style=&quot;font-size: 18px;&quot;&gt;FCTLink&lt;/font&gt;" style="rounded=0;whiteSpace=wrap;html=1;" vertex="1" parent="1">
          <mxGeometry x="40" y="40" width="120" height="60" as="geometry" />
        </mxCell>
        <mxCell id="c7IyUhSVyjtczBqc86Vg-9" value="Home&lt;span style=&quot;white-space: pre;&quot;&gt;&#x9;&lt;/span&gt;Empresa&lt;span style=&quot;white-space: pre;&quot;&gt;&#x9;&lt;/span&gt;&amp;nbsp; &amp;nbsp; &amp;nbsp;Estudiante&lt;span style=&quot;white-space: pre;&quot;&gt;&#x9;&lt;/span&gt;&amp;nbsp; &amp;nbsp;Instituto&lt;span style=&quot;white-space: pre;&quot;&gt;&#x9;&lt;/span&gt;Contact" style="rounded=0;whiteSpace=wrap;html=1;" vertex="1" parent="1">
          <mxGeometry x="390" y="40" width="390" height="60" as="geometry" />
        </mxCell>
        <mxCell id="c7IyUhSVyjtczBqc86Vg-10" value="CARROUSSEL" style="rounded=0;whiteSpace=wrap;html=1;" vertex="1" parent="1">
          <mxGeometry x="70" y="130" width="440" height="260" as="geometry" />
        </mxCell>
        <mxCell id="c7IyUhSVyjtczBqc86Vg-13" value="Información sobre nosotros" style="rounded=0;whiteSpace=wrap;html=1;" vertex="1" parent="1">
          <mxGeometry x="525" y="130" width="225" height="260" as="geometry" />
        </mxCell>
        <mxCell id="c7IyUhSVyjtczBqc86Vg-15" value="Empresas" style="rounded=1;whiteSpace=wrap;html=1;" vertex="1" parent="1">
          <mxGeometry x="120" y="440" width="150" height="220" as="geometry" />
        </mxCell>
        <mxCell id="c7IyUhSVyjtczBqc86Vg-16" value="Institutos" style="rounded=1;whiteSpace=wrap;html=1;" vertex="1" parent="1">
          <mxGeometry x="540" y="440" width="160" height="220" as="geometry" />
        </mxCell>
        <mxCell id="c7IyUhSVyjtczBqc86Vg-17" value="Estudiantes" style="rounded=1;whiteSpace=wrap;html=1;" vertex="1" parent="1">
          <mxGeometry x="330" y="440" width="150" height="220" as="geometry" />
        </mxCell>
        <mxCell id="c7IyUhSVyjtczBqc86Vg-19" value="Mision Vision Y valores" style="rounded=0;whiteSpace=wrap;html=1;" vertex="1" parent="1">
          <mxGeometry x="110" y="160" width="120" height="60" as="geometry" />
        </mxCell>
        <mxCell id="c7IyUhSVyjtczBqc86Vg-20" value="redes sociales, siguenos" style="rounded=0;whiteSpace=wrap;html=1;" vertex="1" parent="1">
          <mxGeometry x="354" y="160" width="120" height="60" as="geometry" />
        </mxCell>
        <mxCell id="c7IyUhSVyjtczBqc86Vg-21" value="FOOTER CON INFO Y CONTACTO" style="rounded=0;whiteSpace=wrap;html=1;" vertex="1" parent="1">
          <mxGeometry x="40" y="950" width="740" height="190" as="geometry" />
        </mxCell>
      </root>
    </mxGraphModel>
  </diagram>
</mxfile>
